<svg xmlns="http://www.w3.org/2000/svg" viewBox="0 0 178 58" fill="currentColor"><path fill="currentColor" d="M1.152 8.2c0-4.288 3.616-7.328 8.704-7.328 5.088 0 8.288 2.816 8.288 7.296h-5.152c0-1.664-1.248-2.688-3.2-2.688-2.112 0-3.456.96-3.456 2.528 0 1.44.736 2.144 2.4 2.496l3.552.736c4.224.864 6.24 2.88 6.24 6.624 0 4.576-3.584 7.552-9.024 7.552C4.224 25.416.8 22.568.8 18.12h5.152c0 1.728 1.28 2.688 3.584 2.688 2.336 0 3.808-.928 3.808-2.432 0-1.312-.608-1.984-2.176-2.304l-3.616-.736c-4.224-.864-6.4-3.264-6.4-7.136Zm18.643 8.768c0-5.056 3.712-8.448 8.832-8.448 5.088 0 8.8 3.392 8.8 8.448 0 5.056-3.712 8.416-8.8 8.416-5.12 0-8.831-3.36-8.831-8.416Zm4.96-.032c0 2.432 1.569 4.032 3.873 4.032 2.271 0 3.84-1.6 3.84-4.032 0-2.4-1.569-4-3.84-4-2.305 0-3.872 1.6-3.872 4Zm13.969 0c0-4.928 3.392-8.448 8.192-8.448 4.736 0 7.872 2.592 8.192 6.784h-4.96c-.352-1.6-1.344-2.368-3.04-2.368-2.08 0-3.424 1.568-3.424 4.032 0 2.56 1.248 4.064 3.36 4.064 1.728 0 2.784-.8 3.104-2.368h4.96c-.32 4.032-3.584 6.784-8.064 6.784-5.056 0-8.32-3.36-8.32-8.48ZM59.542 6.504a2.8 2.8 0 0 1-2.816-2.816c0-1.568 1.248-2.784 2.816-2.784a2.766 2.766 0 0 1 2.784 2.784c0 1.568-1.248 2.816-2.784 2.816ZM57.11 25V9h4.928v16H57.11Zm12.76.416c-3.391 0-5.503-1.984-5.503-5.12 0-2.944 2.08-4.768 5.92-5.056l4.48-.352v-.256c0-1.568-.96-2.4-2.72-2.4-2.08 0-3.2.8-3.2 2.24H64.75c0-3.616 2.976-5.984 7.552-5.984 4.64 0 7.264 2.592 7.264 7.168V25h-4.352l-.32-2.112c-.512 1.472-2.624 2.528-5.024 2.528Zm1.729-3.648c1.888 0 3.2-.928 3.2-2.752v-.864l-2.496.224c-2.144.192-2.912.672-2.912 1.696 0 1.152.704 1.696 2.208 1.696ZM87.333 25h-4.928V.872h4.928V25Zm16.501 0h-5.12V1.32h5.12l9.984 15.072V1.32h5.12V25h-5.12l-9.984-15.04V25Zm26.155.416c-4.832 0-8.288-3.52-8.288-8.448 0-4.992 3.36-8.48 8.192-8.48 5.024 0 8.16 3.296 8.16 8.512v1.248l-11.616.064c.288 2.112 1.472 3.104 3.648 3.104 1.856 0 3.168-.672 3.52-1.824h4.512c-.576 3.552-3.744 5.824-8.128 5.824Zm-.064-12.928c-1.952 0-3.04.864-3.424 2.784h6.656c0-1.696-1.248-2.784-3.232-2.784ZM143.079 25l-5.152-16h5.184l1.472 5.216c.384 1.376.736 2.944.992 4.544.288-1.696.448-2.304 1.152-4.544L148.359 9h5.056l1.504 5.216c.16.544.928 3.52 1.088 4.544.192-1.152.96-3.968 1.12-4.544L158.663 9h5.216l-5.6 16h-4.576l-1.536-5.088c-.8-2.624-1.216-4.512-1.312-5.184-.128.672-.416 1.92-1.44 5.28L147.879 25h-4.8Zm20.66-5.056h4.672c.064 1.12.896 1.792 2.4 1.792 1.536 0 2.24-.544 2.24-1.376 0-.48-.256-.992-1.44-1.248l-2.944-.64c-2.944-.64-4.384-1.92-4.384-4.736 0-3.328 2.848-5.248 6.688-5.248 3.712 0 6.304 2.176 6.304 5.408h-4.672c0-1.088-.672-1.824-1.856-1.824-1.12 0-1.824.576-1.824 1.44 0 .736.608 1.152 1.728 1.408l2.976.64c2.624.576 4.064 1.792 4.064 4.352 0 3.424-2.912 5.504-7.072 5.504-4.224 0-6.88-2.24-6.88-5.472ZM12.064 49.128H7.648V57H2.464V33.32h9.6c4.832 0 8.064 3.168 8.064 7.904s-3.232 7.904-8.064 7.904Zm-1.152-11.2H7.648v6.592h3.264c2.496 0 3.744-1.088 3.744-3.296 0-2.208-1.248-3.296-3.744-3.296ZM27.025 57h-4.928V32.872h4.928V57Zm7.833.416c-3.392 0-5.504-1.984-5.504-5.12 0-2.944 2.08-4.768 5.92-5.056l4.48-.352v-.256c0-1.568-.96-2.4-2.72-2.4-2.08 0-3.2.8-3.2 2.24h-4.097c0-3.616 2.977-5.984 7.552-5.984 4.64 0 7.264 2.592 7.264 7.168V57h-4.351l-.32-2.112c-.512 1.472-2.624 2.528-5.024 2.528Zm1.728-3.648c1.888 0 3.2-.928 3.2-2.752v-.864l-2.497.224c-2.144.192-2.912.672-2.912 1.696 0 1.152.704 1.696 2.209 1.696ZM53.699 57h-4.928V45.096h-3.04V41h3.04v-4.96H53.7V41h3.04v4.096H53.7V57Zm3.68-16h2.208v-1.28c0-4.768 2.495-6.848 6.56-6.848.671 0 1.44.064 2.207.192v4.224h-1.376c-2.015 0-2.463 1.056-2.463 2.432V41h3.84v4.096h-3.84V57h-4.928V45.096h-2.209V41Zm11.162 7.968c0-5.056 3.712-8.448 8.832-8.448 5.088 0 8.8 3.392 8.8 8.448 0 5.056-3.712 8.416-8.8 8.416-5.12 0-8.832-3.36-8.832-8.416Zm4.96-.032c0 2.432 1.568 4.032 3.872 4.032 2.272 0 3.84-1.6 3.84-4.032 0-2.4-1.568-4-3.84-4-2.304 0-3.872 1.6-3.872 4ZM99.34 41v4.64h-1.568c-2.816 0-4.512 1.248-4.512 4.416V57h-4.928V41.032h4.64l.256 2.368c.672-1.568 2.08-2.624 4.224-2.624.576 0 1.216.064 1.888.224Zm6.724 16h-4.928V41h4.608l.32 1.664c.8-1.12 2.368-2.176 4.672-2.176 2.4 0 3.936 1.12 4.864 2.816.832-1.696 2.72-2.816 5.024-2.816 4.128 0 6.176 2.4 6.176 6.048V57h-4.928v-9.088c0-2.016-1.056-2.976-2.624-2.976-1.408 0-2.816.768-2.816 3.488V57h-4.928v-9.088c0-1.984-1.024-2.944-2.592-2.944-1.408 0-2.848.768-2.848 3.456V57Z"/></svg>